<svg width="54" height="54" viewBox="0 0 54 54" fill="none" xmlns="http://www.w3.org/2000/svg">
<circle cx="27" cy="27" r="27" transform="matrix(-1 0 0 1 54 0)" fill="white"/>
<path d="M40 25.75C40.6904 25.75 41.25 26.3096 41.25 27C41.25 27.6904 40.6904 28.25 40 28.25L40 25.75ZM15.1161 27.8839C14.628 27.3957 14.628 26.6043 15.1161 26.1161L23.0711 18.1612C23.5592 17.673 24.3507 17.673 24.8388 18.1612C25.327 18.6493 25.327 19.4408 24.8388 19.9289L17.7678 27L24.8388 34.0711C25.327 34.5592 25.327 35.3507 24.8388 35.8388C24.3507 36.327 23.5592 36.327 23.0711 35.8388L15.1161 27.8839ZM40 28.25L16 28.25L16 25.75L40 25.75L40 28.25Z" fill="#929396"/>
</svg>
