<svg width="110" height="14" viewBox="0 0 110 14" fill="none" xmlns="http://www.w3.org/2000/svg">
<path d="M7 1.61803L8.09607 4.99139L8.20833 5.33688H8.5716H12.1186L9.24901 7.42173L8.95511 7.63526L9.06737 7.98075L10.1634 11.3541L7.29389 9.26925L7 9.05573L6.70611 9.26925L3.83656 11.3541L4.93263 7.98075L5.04489 7.63526L4.75099 7.42173L1.88145 5.33688H5.4284H5.79167L5.90393 4.99139L7 1.61803Z" stroke="#DCDCDC" stroke-opacity="0.866667"/>
<path d="M31 1.61803L32.0961 4.99139L32.2083 5.33688H32.5716H36.1186L33.249 7.42173L32.9551 7.63526L33.0674 7.98075L34.1634 11.3541L31.2939 9.26925L31 9.05573L30.7061 9.26925L27.8366 11.3541L28.9326 7.98075L29.0449 7.63526L28.751 7.42173L25.8814 5.33688H29.4284H29.7917L29.9039 4.99139L31 1.61803Z" stroke="#DCDCDC" stroke-opacity="0.866667"/>
<path d="M55 1.61803L56.0961 4.99139L56.2083 5.33688H56.5716H60.1186L57.249 7.42173L56.9551 7.63526L57.0674 7.98075L58.1634 11.3541L55.2939 9.26925L55 9.05573L54.7061 9.26925L51.8366 11.3541L52.9326 7.98075L53.0449 7.63526L52.751 7.42173L49.8814 5.33688H53.4284H53.7917L53.9039 4.99139L55 1.61803Z" stroke="#DCDCDC" stroke-opacity="0.866667"/>
<path d="M79 1.61803L80.0961 4.99139L80.2083 5.33688H80.5716H84.1186L81.249 7.42173L80.9551 7.63526L81.0674 7.98075L82.1634 11.3541L79.2939 9.26925L79 9.05573L78.7061 9.26925L75.8366 11.3541L76.9326 7.98075L77.0449 7.63526L76.751 7.42173L73.8814 5.33688H77.4284H77.7917L77.9039 4.99139L79 1.61803Z" stroke="#DCDCDC" stroke-opacity="0.866667"/>
<path d="M103 1.61803L104.096 4.99139L104.208 5.33688H104.572H108.119L105.249 7.42173L104.955 7.63526L105.067 7.98075L106.163 11.3541L103.294 9.26925L103 9.05573L102.706 9.26925L99.8366 11.3541L100.933 7.98075L101.045 7.63526L100.751 7.42173L97.8814 5.33688H101.428H101.792L101.904 4.99139L103 1.61803Z" stroke="#DCDCDC" stroke-opacity="0.866667"/>
</svg>
