<svg width="110" height="14" viewBox="0 0 110 14" fill="none" xmlns="http://www.w3.org/2000/svg">
<path d="M7 0L8.5716 4.83688H13.6574L9.5429 7.82624L11.1145 12.6631L7 9.67376L2.8855 12.6631L4.4571 7.82624L0.342604 4.83688H5.4284L7 0Z" fill="#ED1E24"/>
<path d="M31 0L32.5716 4.83688H37.6574L33.5429 7.82624L35.1145 12.6631L31 9.67376L26.8855 12.6631L28.4571 7.82624L24.3426 4.83688H29.4284L31 0Z" fill="#ED1E24"/>
<path d="M55 0L56.5716 4.83688H61.6574L57.5429 7.82624L59.1145 12.6631L55 9.67376L50.8855 12.6631L52.4571 7.82624L48.3426 4.83688H53.4284L55 0Z" fill="#ED1E24"/>
<path d="M79 0L80.5716 4.83688H85.6574L81.5429 7.82624L83.1145 12.6631L79 9.67376L74.8855 12.6631L76.4571 7.82624L72.3426 4.83688H77.4284L79 0Z" fill="#ED1E24"/>
<path d="M103 1.61803L104.096 4.99139L104.208 5.33688H104.572H108.119L105.249 7.42173L104.955 7.63526L105.067 7.98075L106.163 11.3541L103.294 9.26925L103 9.05573L102.706 9.26925L99.8366 11.3541L100.933 7.98075L101.045 7.63526L100.751 7.42173L97.8814 5.33688H101.428H101.792L101.904 4.99139L103 1.61803Z" stroke="#DCDCDC" stroke-opacity="0.866667"/>
</svg>
